HIERARCHY
ROOT Hips
{
	OFFSET 0.00000 0.00000 0.00000
	CHANNELS 6 Xposition Yposition Zposition Zrotation Yrotation Xrotation 
	JOINT LHipJoint
	{
		OFFSET 0 0 0
		CHANNELS 3 Zrotation Yrotation Xrotation
		JOINT LeftHip
		{
			OFFSET 1.36306 -1.79463 0.83929
			CHANNELS 3 Zrotation Yrotation Xrotation
			JOINT LeftKnee
			{
				OFFSET 2.44811 -6.72613 0.00000
				CHANNELS 3 Zrotation Yrotation Xrotation
				JOINT LeftAnkle
				{
					OFFSET 2.56220 -7.03959 0.00000
					CHANNELS 3 Zrotation Yrotation Xrotation
					JOINT LeftToe
					{
						OFFSET 0.15764 -0.43311 2.32255
						CHANNELS 3 Zrotation Yrotation Xrotation
						End Site
						{
							OFFSET 0.00000 -0.00000 1.18966
						}
					}
				}
			}
		}
	}
	JOINT RHipJoint
	{
		OFFSET 0 0 0
		CHANNELS 3 Zrotation Yrotation Xrotation
		JOINT RightHip
		{
			OFFSET -1.30552 -1.79463 0.83929
			CHANNELS 3 Zrotation Yrotation Xrotation
			JOINT RightKnee
			{
				OFFSET -2.54253 -6.98555 0.00000
				CHANNELS 3 Zrotation Yrotation Xrotation
				JOINT RightAnkle
				{
					OFFSET -2.56826 -7.05623 0.00000
					CHANNELS 3 Zrotation Yrotation Xrotation
					JOINT RightToe
					{
						OFFSET -0.16473 -0.45259 2.36315
						CHANNELS 3 Zrotation Yrotation Xrotation
						End Site
						{
							OFFSET -0.00000 -0.00000 1.21082
						}
					}
				}
			}
		}
	}
	JOINT lowerback
	{
		OFFSET 0 0 0
		CHANNELS 3 Zrotation Yrotation Xrotation
		JOINT Chest
		{
			OFFSET 0.02827 2.03559 -0.19338
			CHANNELS 3 Zrotation Yrotation Xrotation
			JOINT Chest2
			{
				OFFSET 0.05672 2.04885 -0.04275
				CHANNELS 3 Zrotation Yrotation Xrotation
				JOINT lowerneck
				{
					OFFSET 0 0 0
					CHANNELS 3 Zrotation Yrotation Xrotation
					JOINT Neck
					{
						OFFSET -0.05417 1.74624 0.17202
						CHANNELS 3 Zrotation Yrotation Xrotation
						JOINT Head
						{
							OFFSET 0.10407 1.76136 -0.12397
							CHANNELS 3 Zrotation Yrotation Xrotation
							End Site
							{
								OFFSET 0.03720 1.77044 -0.06241
							}
						}
					}
				}
				JOINT LeftCollar
				{
					OFFSET 0 0 0
					CHANNELS 3 Zrotation Yrotation Xrotation
					JOINT LeftShoulder
					{
						OFFSET 3.36241 1.20089 -0.31121
CHANNELS 3 Zrotation Xrotation Yrotation
						JOINT LeftElbow
						{
OFFSET 0 -4.983000 -0.000000
CHANNELS 3 Zrotation Xrotation Yrotation
							JOINT LeftWrist
							{
OFFSET 0 -3.483560 -0.000000
CHANNELS 3 Zrotation Xrotation Yrotation
								JOINT lhand
								{
									OFFSET 0 0 0
CHANNELS 3 Zrotation Xrotation Yrotation
									JOINT LFingers
									{
OFFSET 0 -0.715260 -0.000000
CHANNELS 3 Zrotation Xrotation Yrotation
										End Site
										{
OFFSET 0 -0.576660 -0.000000
										}
									}
								}
								JOINT LThumb
								{
OFFSET 0 0.000000 0.000000
CHANNELS 3 Zrotation Xrotation Yrotation
									End Site
									{
OFFSET 0 -0.585470 0.585470
									}
								}
							}
						}
					}
				}
				JOINT RightCollar
				{
					OFFSET 0 0 0
					CHANNELS 3 Zrotation Yrotation Xrotation
					JOINT RightShoulder
					{
						OFFSET -3.13660 1.37405 -0.40465
CHANNELS 3 Zrotation Xrotation Yrotation
						JOINT RightElbow
						{
OFFSET 0 -5.241900 -0.000000
CHANNELS 3 Zrotation Xrotation Yrotation
							JOINT RightWrist
							{
OFFSET 0 -3.444170 -0.000000
CHANNELS 3 Zrotation Xrotation Yrotation
								JOINT rhand
								{
									OFFSET 0 0 0
CHANNELS 3 Zrotation Xrotation Yrotation
									JOINT RFingers
									{
OFFSET 0 -0.622530 -0.000000
CHANNELS 3 Zrotation Xrotation Yrotation
										End Site
										{
OFFSET 0 -0.501900 -0.000000
										}
									}
								}
								JOINT RThumb
								{
OFFSET 0 0.000000 0.000000
CHANNELS 3 Zrotation Xrotation Yrotation
									End Site
									{
OFFSET 0 -0.509560 0.509560
									}
								}
							}
						}
					}
				}
			}
		}
	}
}
MOTION
Frames: 4
Frame Time: 0.008333333333333333
12.967613 27.258111 42.168094 -174.944327 -0.752015 203.134194 0.000000 0.000000 0.000000 -14.177898 -1.947053 -22.282945 2.891449 10.517231 30.668385 2.440749 -14.699040 -28.453706 0.135095 2.368814 6.525965 0.000000 0.000000 0.000000 26.132730 7.781499 -20.677842 -2.827746 -10.410868 30.317809 -3.210161 3.664119 -33.090067 -0.236889 -3.131945 8.646414 4.970374 -6.694717 40.982696 -0.134778 -6.193750 -4.600845 0.769012 -2.793232 -27.483203 -32.741576 -13.729511 -14.550064 18.830368 -15.395209 17.573298 9.760725 -7.595939 12.457986 0.000000 0.000000 0.000000 20.827524 3.366625 -49.078182 22.533449 -33.574637 6.878519 54.873200 -20.476020 41.226757 0.000000 0.000000 0.000000 -7.125000 0.000000 0.000000 8.652143 -26.225337 11.674647 0.000000 0.000000 0.000000 -14.972721 -7.812484 72.736600 -21.777248 -32.724394 -6.464998 -45.240578 23.113746 4.426878 0.000000 0.000000 0.000000 7.125000 0.000000 0.000000 -15.513072 35.870246 -3.587514
12.965728 27.262959 42.140777 -174.905589 -1.269703 202.686336 0.000000 0.000000 0.000000 -13.889002 -2.362177 -21.788545 2.936969 10.592284 30.916839 2.446858 -14.660379 -28.482263 0.054590 1.494468 4.110838 0.000000 0.000000 0.000000 26.416735 7.389985 -20.426044 -2.896528 -10.525681 30.696418 -3.262581 3.697258 -33.364883 -0.276203 -3.380326 9.339574 5.617000 -6.848032 40.952585 -0.122882 -6.352975 -4.506947 0.593201 -3.068382 -27.389536 -31.450778 -12.738187 -15.413556 18.106881 -13.847298 18.342059 9.632993 -6.854117 12.270295 0.000000 0.000000 0.000000 20.518067 3.196781 -49.238284 22.580630 -33.626963 6.904619 53.499901 -21.448883 42.630510 0.000000 0.000000 0.000000 -7.125000 0.000000 0.000000 7.400562 -26.781040 9.996673 0.000000 0.000000 0.000000 -15.034495 -7.853003 72.801429 -21.737856 -32.679549 -6.443753 -45.154843 23.250530 5.130371 0.000000 0.000000 0.000000 7.125000 0.000000 0.000000 -15.585629 36.818094 -3.231004
12.966394 27.254780 42.154155 -174.736883 -0.829653 202.273638 0.000000 0.000000 0.000000 -13.882590 -1.709932 -21.713562 3.000970 10.696680 31.263635 2.476307 -14.356793 -28.607616 0.013262 0.741283 2.037221 0.000000 0.000000 0.000000 26.494557 7.530963 -19.975992 -2.925538 -10.573524 30.854676 -3.253455 3.846910 -33.286685 -0.281799 -3.413922 9.433270 5.623210 -7.055470 40.707524 -0.178283 -6.343817 -4.382332 0.426184 -2.945365 -27.104934 -29.490052 -10.254300 -17.274531 18.052118 -10.206931 18.873262 10.087662 -4.996062 11.625833 0.000000 0.000000 0.000000 20.401776 2.869768 -48.526375 22.125045 -33.117915 6.654089 53.468108 -21.537749 42.699856 0.000000 0.000000 0.000000 -7.125000 0.000000 0.000000 7.355037 -26.829374 9.937247 0.000000 0.000000 0.000000 -14.282333 -8.371922 72.758852 -21.170974 -32.027362 -6.140378 -44.933814 23.285376 4.503710 0.000000 0.000000 0.000000 7.125000 0.000000 0.000000 -15.270745 35.953333 -3.496531
12.962401 27.265654 42.223937 -175.091761 -0.907329 201.825262 0.000000 0.000000 0.000000 -14.237684 -1.488867 -21.648125 3.010258 10.711598 31.313222 2.399343 -14.704838 -28.222545 0.007375 0.544225 1.495587 0.000000 0.000000 0.000000 26.165848 7.286247 -19.839557 -2.935016 -10.589174 30.906570 -3.248483 3.663310 -33.296104 -0.265715 -3.316067 9.159827 5.777941 -7.163555 40.746040 -0.140313 -6.431518 -4.415666 0.456235 -3.007266 -27.186843 -27.479903 -5.611962 -19.678155 18.685566 -3.598141 20.422724 11.280842 -1.652080 10.716440 0.000000 0.000000 0.000000 19.453615 2.018219 -47.909051 23.007803 -34.097272 7.142718 46.367136 -23.378640 48.446423 0.000000 0.000000 0.000000 -7.125000 0.000000 0.000000 1.653073 -28.550270 2.242873 0.000000 0.000000 0.000000 -14.190987 -8.799473 72.586126 -20.926872 -31.742854 -6.011461 -44.516097 24.054484 5.173112 0.000000 0.000000 0.000000 7.125000 0.000000 0.000000 -15.054470 36.833279 -3.110805
